<svg xmlns="http://www.w3.org/2000/svg" version="1.1" xmlns:xlink="http://www.w3.org/1999/xlink" xmlns:svgjs="http://svgjs.com/svgjs" width="1440" height="560" preserveAspectRatio="none" viewBox="0 0 1440 560"><g mask="url(&quot;#SvgjsMask1008&quot;)" fill="none"><path d="M720 722.99C834.21 729.82 941 662.26 1015.19 575.19 1084.04 494.37 1102.06 386.08 1097.43 280 1093.05 179.33 1060.61 81.88 990.47 9.53 919.21-63.98 822.2-103.69 720-109.4 611.13-115.45 499.31-94.61 417.6-22.4 331.31 53.9 271.27 165.11 279.53 280 287.38 389.58 380.68 463.97 458.13 541.87 535.92 620.1 609.87 716.39 720 722.99" fill="#1c538e"></path><path d="M720 566.64C793.9 571.06 863 527.35 911 471 955.55 418.71 967.21 348.64 964.22 280 961.38 214.86 940.4 151.81 895.01 104.99 848.9 57.43 786.13 31.73 720 28.03 649.56 24.12 577.2 37.6 524.33 84.33 468.5 133.7 429.64 205.66 434.99 280 440.07 350.91 500.44 399.04 550.56 449.44 600.89 500.07 648.74 562.37 720 566.64" fill="#2774c6"></path><path d="M720 410.29C753.59 412.3 785 392.43 806.82 366.82 827.07 343.05 832.37 311.2 831.01 280 829.72 250.39 820.18 221.73 799.55 200.45 778.59 178.83 750.06 167.15 720 165.47 687.98 163.69 655.09 169.82 631.06 191.06 605.68 213.5 588.02 246.21 590.45 280 592.76 312.23 620.2 334.11 642.98 357.02 665.86 380.03 687.61 408.35 720 410.29" fill="#488fdb"></path></g><defs><mask id="SvgjsMask1008"><rect width="1440" height="560" fill="#ffffff"></rect></mask></defs></svg>